# xmcd CD database file
# Copyright (C) 1995-1998 Ti Kan
#
# Track frame offsets:
#	150
#	12333
#	25661
#	41326
#	50554
#	61096
#	75338
#	88861
#	103821
#	120357
#	128881
#	137306
#	149765
#	162734
#	175512
#	187617
#	203491
#	216026
#	226969
#	239207
#	250646
#	261949
#	274231
#	289577
#	302001
#
# Disc length: 4375 seconds
#
# Revision: 1
# Processed by: cddbd v1.4b41PL3 Copyright (c) Steve Scherf et al.
# Submitted via: CDex 1.30
#
DISCID=55111519
DTITLE=Dixie Aces - Moonshot cd1
DYEAR=1996
DGENRE=Country
TTITLE0=Back track
TTITLE1=Aloha oe
TTITLE2=Spanish eyes
TTITLE3=Wheels
TTITLE4=Sukiyaki
TTITLE5=The young ones
TTITLE6=Third man theme
TTITLE7=Midnight blue
TTITLE8=La paloma
TTITLE9=Amapola
TTITLE10=Moonshot
TTITLE11=Limelight7
TTITLE12=Sweet margarita
TTITLE13=La comparasa
TTITLE14=The stranger
TTITLE15=Please return
TTITLE16=Rodeo road
TTITLE17=Time traveler
TTITLE18=Firebird
TTITLE19=Should I
TTITLE20=Red light boogie
TTITLE21=Foottapper
TTITLE22=Time is tight
TTITLE23=Back home
TTITLE24=Electric johnny medley
EXTD=\nYEAR: 1996  ID3G:   2
EXTT0=
EXTT1=
EXTT2=
EXTT3=
EXTT4=
EXTT5=
EXTT6=
EXTT7=
EXTT8=
EXTT9=
EXTT10=
EXTT11=
EXTT12=
EXTT13=
EXTT14=
EXTT15=
EXTT16=
EXTT17=
EXTT18=
EXTT19=
EXTT20=
EXTT21=
EXTT22=
EXTT23=
EXTT24=
PLAYORDER=
